<?xml version="1.0" encoding="utf-8"?>
<!-- Generator: Adobe Illustrator 25.0.0, SVG Export Plug-In . SVG Version: 6.00 Build 0)  -->
<svg version="1.1" id="Camada_1" xmlns="http://www.w3.org/2000/svg" xmlns:xlink="http://www.w3.org/1999/xlink" x="0px" y="0px"
	 viewBox="0 0 2500 684.4" style="enable-background:new 0 0 2500 684.4;" xml:space="preserve">
<style type="text/css">
	.st0{fill-rule:evenodd;clip-rule:evenodd;fill:#FF7000;}
	.st1{fill-rule:evenodd;clip-rule:evenodd;fill:#FFC699;}
</style>
<path class="st0" d="M790.9,252.9L728.6,408h86.1l-23.6-155.8L790.9,252.9z M461.1,608.9L716.5,83.2h193l107.7,525.7H847.7l-12.5-70
	H670.7l-37.8,70H461.1z M1097.4,608.9l74-525.7h170.8l-74,525.7H1097.4z M2233.3,252.2L2170.8,408h86.1L2233.3,252.2L2233.3,252.2z
	 M1903.3,608.9l255.4-525.7h193l107.7,525.7h-169.5l-12.5-70h-164.5l-37.8,70H1903.3z M1525.7,363.1h214L1886.3,606h-214
	L1525.7,363.1L1525.7,363.1z"/>
<path class="st1" d="M1547.9,325.8h221.2L1961.2,84H1740L1547.9,325.8L1547.9,325.8z M1326.7,607.5h221.2L1740,362.7h-221.2
	L1326.7,607.5z"/>
<path class="st0" d="M1406.5,81H1613l141.4,244.8h-206.5L1406.5,81L1406.5,81z M466.2,102.1l-16.4,154.6
	c-63-86.8-208.8-26.9-220.3,81.3c-14.6,137.3,125.9,169.4,202.3,88.5l-16.5,155c-22.8,11.2-45.1,19.9-67.1,25.8
	c-21.4,5.8-43.4,9-65.6,9.5c-27.4,0.6-52.2-2.3-74.5-8.6c-21.8-5.9-42.3-15.8-60.4-29.3c-34.5-25.2-59.4-57.3-74.8-96.3
	c-15.4-39.2-20.4-83.3-15.2-132.7c4.2-39.7,14.2-75.9,30.1-108.7c15.8-32.8,37.7-62.6,65.5-89.6c26.3-25.8,55-45.2,86-58.4
	C270.1,80,303.9,73,340.4,72.2c21.5-0.5,43,1.7,63.9,6.7C425.1,84,445.6,91.7,466.2,102.1L466.2,102.1z"/>
</svg>
