<?xml version="1.0" encoding="utf-8"?>
<!-- Generator: Adobe Illustrator 25.0.0, SVG Export Plug-In . SVG Version: 6.00 Build 0)  -->
<svg version="1.1" id="Camada_1" xmlns="http://www.w3.org/2000/svg" xmlns:xlink="http://www.w3.org/1999/xlink" x="0px" y="0px"
	 viewBox="0 0 2500 684.4" style="enable-background:new 0 0 2500 684.4;" xml:space="preserve">
<style type="text/css">
	.st0{fill:#FF7000;}
	.st1{fill:#FFC699;}
</style>
<g>
	<path class="st0" d="M79.7,88.5c22.6-25,55.8-37.5,99.8-37.5c44,0,77.3,12.5,99.8,37.5c22.6,25,33.8,60.9,33.8,107.7v18.2h-85.8
		v-23.9c0-19.8-3.9-34.2-11.6-43.3c-7.7-9.1-19-13.6-33.8-13.6s-26.1,4.5-33.8,13.6c-7.7,9.1-11.6,23.5-11.6,43.3
		c0,24.2,6.5,45.4,19.4,63.5c12.9,18.2,32.3,38.8,58.2,61.9c21.5,19.8,38.8,37.3,52,52.4c13.2,15.1,24.5,33.4,33.8,54.9
		c9.3,21.5,14,45.9,14,73.4c0,46.8-11.6,82.7-34.7,107.7c-23.1,25-56.7,37.5-100.7,37.5c-44,0-77.6-12.5-100.7-37.5
		c-23.1-25-34.7-60.9-34.7-107.7V461h85.8v41.3c0,37.4,15.7,56.1,47,56.1c31.4,0,47-18.7,47-56.1c0-24.2-6.5-45.4-19.4-63.5
		c-12.9-18.2-32.3-38.8-58.2-61.9c-21.5-19.8-38.8-37.3-52-52.4c-13.2-15.1-24.5-33.4-33.8-54.9c-9.4-21.5-14-45.9-14-73.4
		C45.9,149.4,57.2,113.5,79.7,88.5z"/>
	<path class="st0" d="M456.8,57.5v577.6h-90.8V57.5H456.8z"/>
	<path class="st0" d="M603.7,635.2H522V57.5h113.9l93.2,345.7V57.5H810v577.6h-93.2l-113-418.4V635.2z"/>
	<path class="st0" d="M1018.7,57.5c45.1,0,78.9,12.1,101.5,36.3c22.6,24.2,33.8,59.7,33.8,106.4v292.1c0,46.8-11.3,82.2-33.8,106.4
		c-22.6,24.2-56.4,36.3-101.5,36.3H875.2V57.5H1018.7z M965.9,552.6h51.2c14.9,0,26.3-4.4,34.2-13.2c8-8.8,12-23.1,12-42.9V196.2
		c0-19.8-4-34.1-12-42.9c-8-8.8-19.4-13.2-34.2-13.2h-51.2V552.6z"/>
	<path class="st0" d="M1302.6,57.5v577.6h-90.8V57.5H1302.6z"/>
	<path class="st1" d="M1449.4,635.2h-81.7V57.5h113.9l93.2,345.7V57.5h80.9v577.6h-93.2l-113-418.4V635.2z"/>
	<path class="st1" d="M1923.1,635.2l-15.7-104.8H1796l-15.7,104.8H1697l92.4-577.6h132.9l92.4,577.6H1923.1z M1895,452l-43.7-292.1
		L1807.6,452H1895z"/>
	<path class="st1" d="M2291.9,93.8c22.5,24.2,33.8,59.7,33.8,106.4v75.1c0,46.8-11.3,82.2-33.8,106.4
		c-22.6,24.2-56.4,36.3-101.5,36.3h-42.9v217h-90.8V57.5h133.7C2235.5,57.5,2269.4,69.6,2291.9,93.8z M2147.5,335.6h42.9
		c14.9,0,26-4.1,33.4-12.4c7.4-8.3,11.1-22.3,11.1-42.1v-86.6c0-19.8-3.7-33.8-11.1-42.1c-7.4-8.3-18.6-12.4-33.4-12.4h-42.9V335.6z
		"/>
	<path class="st1" d="M2462.7,57.5v577.6H2372V57.5H2462.7z"/>
</g>
</svg>
